<svg id="visual" viewBox="0 0 1000 90" xmlns="http://www.w3.org/2000/svg" xmlns:xlink="http://www.w3.org/1999/xlink" version="1.1"><path d="M0 54L23.8 53.3C47.7 52.7 95.3 51.3 143 53.5C190.7 55.7 238.3 61.3 286 61.7C333.7 62 381.3 57 428.8 56.2C476.3 55.3 523.7 58.7 571.2 58.2C618.7 57.7 666.3 53.3 714 50.2C761.7 47 809.3 45 857 45.2C904.7 45.3 952.3 47.7 976.2 48.8L1000 50L1000 0L976.2 0C952.3 0 904.7 0 857 0C809.3 0 761.7 0 714 0C666.3 0 618.7 0 571.2 0C523.7 0 476.3 0 428.8 0C381.3 0 333.7 0 286 0C238.3 0 190.7 0 143 0C95.3 0 47.7 0 23.8 0L0 0Z" fill="#ffffff" stroke-linecap="round" stroke-linejoin="miter"></path></svg>